<?xml version="1.0" encoding="UTF-8" standalone="no"?>
<!-- Created with Inkscape (http://www.inkscape.org/) -->

<svg
   xmlns:dc="http://purl.org/dc/elements/1.1/"
   xmlns:cc="http://creativecommons.org/ns#"
   xmlns:rdf="http://www.w3.org/1999/02/22-rdf-syntax-ns#"
   xmlns:svg="http://www.w3.org/2000/svg"
   xmlns="http://www.w3.org/2000/svg"
   version="1.1"
   width="744.09448"
   height="1052.3622"
   id="svg3267">
  <defs
     id="defs3269" />
  <metadata
     id="metadata3272">
    <rdf:RDF>
      <cc:Work
         rdf:about="">
        <dc:format>image/svg+xml</dc:format>
        <dc:type
           rdf:resource="http://purl.org/dc/dcmitype/StillImage" />
        <dc:title></dc:title>
      </cc:Work>
    </rdf:RDF>
  </metadata>
  <g
     id="layer1">
    <path
       d="m 96.873321,72.000504 80.812229,0 c 15.10986,0 27.27411,12.1642 27.27411,27.2741 l 0,80.812306 c 0,15.1098 -12.16425,27.2741 -27.27411,27.2741 l -80.812229,0 c -15.10985,0 -27.2741,-12.1643 -27.2741,-27.2741 l 0,-80.812306 c 0,-15.1098 12.16425,-27.2741 27.2741,-27.2741 z"
       id="rect4176-3"
       style="fill:none;stroke:#000000;stroke-width:4;stroke-linecap:round;stroke-miterlimit:4;stroke-opacity:1;stroke-dashoffset:0" />
    <path
       d="m 137.27944,11.252204 0,253.046006"
       id="path3973"
       style="fill:none;stroke:#000000;stroke-width:1px;stroke-linecap:butt;stroke-linejoin:miter;stroke-opacity:1" />
    <path
       d="m 11.899725,139.6808 259.905685,0"
       id="path3975"
       style="fill:none;stroke:#000000;stroke-width:1px;stroke-linecap:butt;stroke-linejoin:miter;stroke-opacity:1" />
    <rect
       width="145.6761"
       height="145.6761"
       ry="24.589045"
       x="64.441406"
       y="66.842712"
       id="rect3977"
       style="fill:none;stroke:#000000;stroke-width:0.90155268;stroke-linecap:round;stroke-linejoin:round;stroke-miterlimit:4;stroke-opacity:1;stroke-dasharray:none;stroke-dashoffset:0" />
    <path
       d="m 95.730041,364.68031 c 29.977699,-4.3433 56.146119,-3.2447 80.812229,0 14.9808,1.9707 25.19073,12.30849 27.27411,27.27409 4.01623,28.8499 3.52229,55.5521 0,80.8123 -2.08673,14.965 -12.30403,25.2236 -27.27411,27.2741 -29.74746,4.0746 -56.13335,3.2749 -80.812229,0 -14.97855,-1.9876 -25.17273,-12.3111 -27.2741,-27.2741 -3.48045,-24.7829 -4.05563,-51.3642 0,-80.8123 2.06149,-14.9685 12.32038,-25.10759 27.2741,-27.27409 z"
       id="rect4176-3-6"
       style="fill:none;stroke:#000000;stroke-width:4;stroke-linecap:round;stroke-miterlimit:4;stroke-opacity:1;stroke-dashoffset:0" />
    <path
       d="m 136.13616,303.93201 0,253.04599"
       id="path3973-7"
       style="fill:none;stroke:#000000;stroke-width:1px;stroke-linecap:butt;stroke-linejoin:miter;stroke-opacity:1" />
    <path
       d="m 10.756425,432.3606 259.905705,0"
       id="path3975-5"
       style="fill:none;stroke:#000000;stroke-width:1px;stroke-linecap:butt;stroke-linejoin:miter;stroke-opacity:1" />
    <rect
       width="145.6761"
       height="145.6761"
       ry="24.589045"
       x="63.298153"
       y="359.52252"
       id="rect3977-3"
       style="fill:none;stroke:#000000;stroke-width:0.90155268;stroke-linecap:round;stroke-linejoin:round;stroke-miterlimit:4;stroke-opacity:1;stroke-dasharray:none;stroke-dashoffset:0" />
    <path
       d="m 210.85328,642.20049 c 4.01624,28.8499 3.5223,55.5521 0,80.8123"
       id="path3223"
       style="fill:none;stroke:#000000;stroke-width:4;stroke-linecap:round;stroke-miterlimit:4;stroke-opacity:1;stroke-dashoffset:0" />
    <path
       d="m 210.85328,723.01279 c -2.0867,14.965 -12.304,25.2236 -27.2741,27.2741 -29.74749,4.0746 -56.13329,3.2749 -80.81219,0 -14.978604,-1.9876 -25.172804,-12.3111 -27.274104,-27.2741 -3.480501,-24.7829 -4.055701,-51.3642 0,-80.8123"
       id="path3221"
       style="fill:none;stroke:#000000;stroke-width:4;stroke-linecap:round;stroke-miterlimit:4;stroke-opacity:1;stroke-dashoffset:0" />
    <path
       d="m 75.492886,631.74379 c 2.0615,-14.9685 12.3204,-25.1076 27.274104,-27.2741 29.9777,-4.3433 56.1461,-3.2447 80.81219,0 14.9808,1.9707 25.1907,12.3085 27.2741,27.2741"
       id="rect4176-3-6-3"
       style="fill:none;stroke:#000000;stroke-width:4;stroke-linecap:round;stroke-miterlimit:4;stroke-opacity:1;stroke-dashoffset:0" />
    <path
       d="m 411.83822,63.345884 c 29.9777,-4.3433 56.14612,-3.2447 80.81222,0 14.9808,1.9707 25.19073,12.3085 27.27411,27.2741 4.01623,28.849896 3.52229,55.552096 0,80.812296 -2.08673,14.965 -12.30403,25.2236 -27.27411,27.2741 -29.74745,4.0746 -56.13334,3.2749 -80.81222,0 -14.97855,-1.9876 -25.17273,-12.3111 -27.2741,-27.2741 -3.48045,-24.7829 -4.05563,-51.3642 0,-80.812296 2.06149,-14.9685 12.32038,-25.1076 27.2741,-27.2741 z"
       id="rect4176-3-6-6"
       style="fill:none;stroke:#000000;stroke-width:4;stroke-linecap:round;stroke-miterlimit:4;stroke-opacity:1;stroke-dasharray:none;stroke-dashoffset:0" />
    <path
       d="m 73.274665,908.22108 c 2.05764,14.9698 12.09234,33.1208 27.018075,35.2875 29.92164,4.3437 56.04109,3.245 80.66105,0 14.95278,-1.9709 25.3486,-20.3206 27.42809,-35.2875 M 100.39657,799.30918 c 29.9777,-4.3433 56.14612,-3.2447 80.81222,0 14.9808,1.9707 25.19073,12.3085 27.27411,27.2741 4.01623,28.8499 3.52229,55.5521 0,80.8123 -2.08673,14.965 -12.30403,25.2236 -27.27411,27.2741 -29.74745,4.0746 -56.13334,3.2749 -80.81222,0 -14.978555,-1.9876 -25.172735,-12.3111 -27.274105,-27.2741 -3.48045,-24.7829 -4.05563,-51.3642 0,-80.8123 2.06149,-14.9685 12.32038,-25.1076 27.274105,-27.2741 z"
       id="rect4176-3-6-3-7-6"
       style="fill:none;stroke:#000000;stroke-width:4;stroke-linecap:round;stroke-miterlimit:4;stroke-opacity:1;stroke-dasharray:none;stroke-dashoffset:0" />
    <path
       d="m 384.90147,173.16438 c 2.04102,14.975 1.69438,39.7225 30.50375,42.3578 31.81427,2.9102 51.68343,2.5904 71.41384,0.443 33.31974,-3.6266 30.86569,-27.8287 32.92838,-42.8008"
       id="rect4176-3-6-3-7"
       style="fill:none;stroke:#000000;stroke-width:3.9845047;stroke-linecap:round;stroke-miterlimit:4;stroke-opacity:1;stroke-dasharray:none;stroke-dashoffset:0" />
    <path
       d="m 451.87466,722.44134 c -2.041,14.975 -1.6944,39.7225 -30.5037,42.3578 -31.8143,2.9102 -51.6835,2.5904 -71.4139,0.443 -33.3197,-3.6266 -30.8656,-27.8287 -32.9283,-42.8008"
       id="path4126"
       style="fill:none;stroke:#000000;stroke-width:4;stroke-linecap:round;stroke-miterlimit:4;stroke-opacity:1;stroke-dasharray:none;stroke-dashoffset:0" />
    <path
       d="m 424.93796,612.62284 c -29.9777,-4.3433 -56.1461,-3.2447 -80.8122,0 -14.9808,1.9707 -25.1908,12.3085 -27.2741,27.2741 -4.0163,28.8499 -3.5223,55.5521 0,80.8123 2.0867,14.965 12.304,25.2236 27.2741,27.2741 29.7474,4.0746 56.1333,3.2749 80.8122,0 14.9785,-1.9876 25.1727,-12.3111 27.2741,-27.2741 3.48044,-24.7829 4.05564,-51.3642 0,-80.8123 -2.0615,-14.9685 -12.3204,-25.1076 -27.2741,-27.2741 z"
       id="path4124"
       style="fill:none;stroke:#000000;stroke-width:4;stroke-linecap:round;stroke-miterlimit:4;stroke-opacity:1;stroke-dasharray:none;stroke-dashoffset:0" />
    <path
       d="m 317.18926,722.44134 c 2.041,14.975 1.6944,39.7225 30.5037,42.3578 31.8143,2.9102 51.6835,2.5904 71.4139,0.443 33.3197,-3.6266 30.8656,-27.8287 32.9283,-42.8008"
       id="path4122"
       style="fill:none;stroke:#000000;stroke-width:4;stroke-linecap:round;stroke-miterlimit:4;stroke-opacity:1;stroke-dasharray:none;stroke-dashoffset:0" />
    <path
       d="m 344.12596,612.62284 c 29.9777,-4.3433 56.1461,-3.2447 80.8122,0 14.9808,1.9707 25.1908,12.3085 27.2741,27.2741 4.01634,28.8499 3.52234,55.5521 0,80.8123 -2.0867,14.965 -12.304,25.2236 -27.2741,27.2741 -29.7474,4.0746 -56.1333,3.2749 -80.8122,0 -14.9785,-1.9876 -25.1727,-12.3111 -27.2741,-27.2741 -3.4804,-24.7829 -4.0556,-51.3642 0,-80.8123 2.0615,-14.9685 12.3204,-25.1076 27.2741,-27.2741 z"
       id="rect4176-3-6-3-7-5-3"
       style="fill:none;stroke:#000000;stroke-width:4;stroke-linecap:round;stroke-miterlimit:4;stroke-opacity:1;stroke-dasharray:none;stroke-dashoffset:0" />
    <path
       d="m 368.65696,651.59964 48.0671,29.5798 -48.0671,27.731 z"
       id="path4004-5"
       style="fill:none;stroke:#000000;stroke-width:4;stroke-linecap:round;stroke-miterlimit:4;stroke-opacity:1;stroke-dasharray:none;stroke-dashoffset:0" />
    <path
       d="m 451.87466,899.84934 c -2.041,14.975 -1.6944,39.7225 -30.5037,42.3578 -31.8143,2.9102 -51.6835,2.5904 -71.4139,0.443 -33.3197,-3.6266 -30.8656,-27.8287 -32.9283,-42.8008"
       id="path4118"
       style="fill:none;stroke:#000000;stroke-width:4;stroke-linecap:round;stroke-miterlimit:4;stroke-opacity:1;stroke-dasharray:none;stroke-dashoffset:0" />
    <path
       d="m 424.93796,790.03084 c -29.9777,-4.3433 -56.1461,-3.2447 -80.8122,0 -14.9808,1.9707 -25.1908,12.3085 -27.2741,27.2741 -4.0163,28.8499 -3.5223,55.5521 0,80.8123 2.0867,14.965 12.304,25.2236 27.2741,27.2741 29.7474,4.0746 56.1333,3.2749 80.8122,0 14.9785,-1.9876 25.1727,-12.3111 27.2741,-27.2741 3.48044,-24.7829 4.05564,-51.3642 0,-80.8123 -2.0615,-14.9685 -12.3204,-25.1076 -27.2741,-27.2741 z"
       id="path4116"
       style="fill:none;stroke:#000000;stroke-width:4;stroke-linecap:round;stroke-miterlimit:4;stroke-opacity:1;stroke-dasharray:none;stroke-dashoffset:0" />
    <path
       d="m 317.18926,899.84934 c 2.041,14.975 1.6944,39.7225 30.5037,42.3578 31.8143,2.9102 51.6835,2.5904 71.4139,0.443 33.3197,-3.6266 30.8656,-27.8287 32.9283,-42.8008"
       id="path4114"
       style="fill:none;stroke:#000000;stroke-width:4;stroke-linecap:round;stroke-miterlimit:4;stroke-opacity:1;stroke-dasharray:none;stroke-dashoffset:0" />
    <path
       d="m 344.12596,790.03084 c 29.9777,-4.3433 56.1461,-3.2447 80.8122,0 14.9808,1.9707 25.1908,12.3085 27.2741,27.2741 4.01634,28.8499 3.52234,55.5521 0,80.8123 -2.0867,14.965 -12.304,25.2236 -27.2741,27.2741 -29.7474,4.0746 -56.1333,3.2749 -80.8122,0 -14.9785,-1.9876 -25.1727,-12.3111 -27.2741,-27.2741 -3.4804,-24.7829 -4.0556,-51.3642 0,-80.8123 2.0615,-14.9685 12.3204,-25.1076 27.2741,-27.2741 z"
       id="rect4176-3-6-3-7-5-3-6"
       style="fill:none;stroke:#000000;stroke-width:4;stroke-linecap:round;stroke-miterlimit:4;stroke-opacity:1;stroke-dasharray:none;stroke-dashoffset:0" />
    <path
       d="m 368.65696,828.95094 0,57.4242 m 31.75,-57.4242 0,57.4242"
       id="path3996-9"
       style="fill:none;stroke:#000000;stroke-width:4;stroke-linecap:round;stroke-linejoin:miter;stroke-miterlimit:4;stroke-opacity:1;stroke-dasharray:none" />
    <path
       d="m 647.85742,615.41194 c -29.97769,-4.3433 -56.14609,-3.2447 -80.81219,0 -14.9808,1.9707 -25.1908,12.3085 -27.2741,27.27411 -4.0163,28.8499 -3.5223,55.5521 0,80.8123 2.0867,14.965 12.304,25.2236 27.2741,27.2741 29.7474,4.0746 56.1333,3.2749 80.81219,0 14.9785,-1.9876 25.1727,-12.3111 27.2741,-27.2741 3.4805,-24.7829 4.0557,-51.3642 0,-80.8123 -2.0615,-14.96851 -12.3204,-25.10761 -27.2741,-27.27411 z"
       id="path4124-6"
       style="fill:none;stroke:#000000;stroke-width:4;stroke-linecap:round;stroke-miterlimit:4;stroke-opacity:1;stroke-dasharray:none;stroke-dashoffset:0" />
    <path
       d="m 591.57643,654.38875 48.06709,29.5798 -48.06709,27.731 z"
       id="path4004-5-3"
       style="fill:none;stroke:#000000;stroke-width:4;stroke-linecap:round;stroke-miterlimit:4;stroke-opacity:1;stroke-dasharray:none;stroke-dashoffset:0" />
    <path
       d="m 647.85742,792.81995 c -29.97769,-4.3433 -56.14609,-3.2447 -80.81219,0 -14.9808,1.9707 -25.1908,12.3085 -27.2741,27.2741 -4.0163,28.8499 -3.5223,55.5521 0,80.8123 2.0867,14.965 12.304,25.2236 27.2741,27.2741 29.7474,4.0746 56.1333,3.2749 80.81219,0 14.9785,-1.9876 25.1727,-12.3111 27.2741,-27.2741 3.4805,-24.7829 4.0557,-51.3642 0,-80.8123 -2.0615,-14.9685 -12.3204,-25.1076 -27.2741,-27.2741 z"
       id="path4116-6"
       style="fill:none;stroke:#000000;stroke-width:4;stroke-linecap:round;stroke-miterlimit:4;stroke-opacity:1;stroke-dasharray:none;stroke-dashoffset:0" />
    <path
       d="m 591.57643,831.74005 0,57.4242 m 31.75,-57.4242 0,57.4242"
       id="path3996-9-1"
       style="fill:none;stroke:#000000;stroke-width:4;stroke-linecap:round;stroke-linejoin:miter;stroke-miterlimit:4;stroke-opacity:1;stroke-dasharray:none" />
    <path
       d="m 466.73162,370.85161 c 1.1953,7.65751 0.5866,13.51105 0,19.38671 -0.36,3.60691 -2.9408,6.13816 -6.543,6.54302 -7.2805,0.81828 -13.4647,0.54028 -19.3867,0 -3.6098,-0.32933 -6.148,-2.93977 -6.543,-6.54302 -0.7719,-7.0412 -1.047,-13.70969 0,-19.38671 0.6574,-3.56471 2.9301,-6.24913 6.543,-6.54301 6.6423,-0.54027 13.1972,-0.81827 19.3867,0 3.5936,0.47508 5.984,2.96155 6.543,6.54301 z m -9.3793,5.90583 -7.0962,11.53123 -6.6526,-11.53124"
       id="path4682-1"
       style="opacity:0.90399996;fill:none;stroke:#000000;stroke-width:2.13326001;stroke-linecap:round;stroke-miterlimit:4;stroke-opacity:1;stroke-dasharray:none;stroke-dashoffset:0" />
    <path
       d="m 349.20483,371.07397 c 1.1953,7.65751 0.5866,13.51105 0,19.38671 -0.36,3.60691 -2.9408,6.13816 -6.543,6.54302 -7.2805,0.81828 -13.46472,0.54028 -19.38669,0 -3.60984,-0.32933 -6.14796,-2.93977 -6.543,-6.54302 -0.77195,-7.0412 -1.04696,-13.70969 0,-19.38671 0.65742,-3.56471 2.93012,-6.24913 6.543,-6.54301 6.64234,-0.54027 13.19719,-0.81827 19.38669,0 3.5936,0.47508 5.984,2.96155 6.543,6.54301 z"
       id="path4758"
       style="opacity:0.90399996;fill:none;stroke:#000000;stroke-width:2.13326001;stroke-linecap:round;stroke-miterlimit:4;stroke-opacity:1;stroke-dasharray:none;stroke-dashoffset:0" />
    <path
       d="m 339.86843,369.17865 -7.0962,11.53123 -6.65261,-11.53124"
       id="path4682-1-8"
       style="opacity:0.90399996;fill:none;stroke:#000000;stroke-width:2.13326001;stroke-linecap:round;stroke-miterlimit:4;stroke-opacity:1;stroke-dasharray:none;stroke-dashoffset:0" />
    <path
       d="m 325.61043,392.24812 7.0961,-11.53123 6.6527,11.53123"
       id="path4682-1-8-4"
       style="opacity:0.90399996;fill:none;stroke:#000000;stroke-width:2.13326001;stroke-linecap:round;stroke-miterlimit:4;stroke-opacity:1;stroke-dasharray:none;stroke-dashoffset:0" />
    <path
       d="m 407.06043,370.38503 c 1.1953,7.65751 0.5866,13.51105 0,19.38671 -0.36,3.60691 -2.9408,6.13816 -6.543,6.54302 -7.2805,0.81828 -13.4647,0.54028 -19.3867,0 -3.6098,-0.32933 -6.148,-2.93977 -6.543,-6.54302 -0.7719,-7.0412 -1.047,-13.70969 0,-19.38671 0.6574,-3.56471 2.9301,-6.24913 6.543,-6.54301 6.6423,-0.54027 13.1972,-0.81827 19.3867,0 3.5936,0.47508 5.984,2.96155 6.543,6.54301 z"
       id="path4956"
       style="opacity:0.90399996;fill:none;stroke:#000000;stroke-width:2.13326001;stroke-linecap:round;stroke-miterlimit:4;stroke-opacity:1;stroke-dasharray:none;stroke-dashoffset:0" />
    <path
       d="m 381.82281,372.57775 18.5,0"
       id="path4958"
       style="fill:#ffffff;fill-opacity:1;fill-rule:evenodd;stroke:#000000;stroke-width:2;stroke-linecap:round;stroke-linejoin:miter;stroke-miterlimit:4;stroke-opacity:1;stroke-dasharray:none" />
    <path
       d="m 381.82281,379.95275 18.5,0"
       id="path4958-7"
       style="fill:#ffffff;fill-opacity:1;fill-rule:evenodd;stroke:#000000;stroke-width:2;stroke-linecap:round;stroke-linejoin:miter;stroke-miterlimit:4;stroke-opacity:1;stroke-dasharray:none" />
    <path
       d="m 381.82281,387.32775 18.5,0"
       id="path4958-2"
       style="fill:#ffffff;fill-opacity:1;fill-rule:evenodd;stroke:#000000;stroke-width:2;stroke-linecap:round;stroke-linejoin:miter;stroke-miterlimit:4;stroke-opacity:1;stroke-dasharray:none" />
    <path
       d="m 525.76672,390.81327 c 1.1953,-7.65751 0.5866,-13.51105 0,-19.38671 -0.36,-3.60691 -2.9408,-6.13816 -6.543,-6.54302 -7.2805,-0.81828 -13.4647,-0.54028 -19.3867,0 -3.6098,0.32933 -6.148,2.93977 -6.543,6.54302 -0.7719,7.0412 -1.047,13.70969 0,19.38671 0.6574,3.56471 2.9301,6.24913 6.543,6.54301 6.6423,0.54027 13.1972,0.81827 19.3867,0 3.5936,-0.47508 5.984,-2.96155 6.543,-6.54301 z m -9.3793,-5.90583 -7.0962,-11.53123 -6.6526,11.53124"
       id="path4682-1-3"
       style="opacity:0.90399996;fill:none;stroke:#000000;stroke-width:2.13326001;stroke-linecap:round;stroke-miterlimit:4;stroke-opacity:1;stroke-dasharray:none;stroke-dashoffset:0" />
  </g>
</svg>
